<svg data-v-3e4b0858="" version="1.0" xmlns="http://www.w3.org/2000/svg" width="100%" height="100%" viewBox="0 0 162.5 70" preserveAspectRatio="xMidYMid meet" color-interpolation-filters="sRGB" class="el-tooltip" style="margin: auto;"> <g data-v-3e4b0858="" fill="#fff" class="iconbordersvg"><g><rect x="0" y="0" width="162.5" height="70" fill-opacity="0" stroke="rgb(255, 255, 255)"></rect> <!----> <g transform="translate(0,0)"><g transform="translate(0,0)"><rect x="0" y="0" width="70" height="70"></rect> <!----> <g transform="translate(5,5)"><g><!----> <svg filter="url(#colors3569943131)" x="0" y="0" width="60" height="60" class="imagesvg-svg"><svg xmlns="http://www.w3.org/2000/svg" viewBox="0 0 74.97 52.58"><g><g><circle cx="67.97" cy="6.99" r="6.99" fill="#000000"></circle><path d="M75 19a1.43 1.43 0 0 0 0-.18c0-1.73-3.13-3.13-7-3.13s-7 1.4-7 3.13a1.44 1.44 0 0 0 0 .18v11.29c0 1.15-.35 4.38-2.22 6.29-1.27 1.3-3.3 2-6 2s-4.76-.74-6-2c-1.87-1.91-2.23-5.14-2.22-6.29V3.51a1.43 1.43 0 0 0 0-.25c0-1.73-3.13-3.13-7-3.13s-7 1.4-7 3.13a1.43 1.43 0 0 0 0 .25V30.29c0 1.15-.35 4.38-2.22 6.29-1.27 1.3-3.3 2-6 2s-4.77-.74-6-2c-2-1.94-2.34-5.17-2.34-6.32V3.7a1.43 1.43 0 0 0 0-.18C14 1.78 10.87.38 7 .38s-7 1.4-7 3.13a1.42 1.42 0 0 0 0 .18v26.16c0 1.68.05 10 6 16.3 2.63 2.76 7.35 6 15.09 6.39h2.21c6.89-.33 11.38-2.95 14.14-5.46 2.76 2.52 7.25 5.13 14.14 5.46h2.21c7.74-.37 12.46-3.63 15.09-6.39 6-6.26 6.08-14.62 6-16.3z" fill="#000000"></path></g></g></svg></svg> <defs><filter id="colors3569943131"><feColorMatrix type="matrix" values="0 0 0 0 0  0 0 0 0 0.32421875  0 0 0 0 0.62109375  0 0 0 1 0"></feColorMatrix></filter></defs></g></g></g> <g transform="translate(70,0)"><rect x="0" y="0" width="92.5" height="70" fill-opacity="0"></rect> <!----> <g transform="translate(5,12.354999542236328)"><g class="tp-name" transform="translate(4.5500030517578125,0)"><g><path transform="translate(-1.8,27.32)" d="M10.36-4.28L8.16-4.28L8.16-23.16L10.36-23.16L10.36-27.32L1.80-27.32L1.80-23.16L4-23.16L4-4.28L1.80-4.28L1.80-0.12L10.36-0.12ZM27.08 0.12L31.44-5L31.44-13.48L27.08-18.80L18.32-18.80L13.96-13.48L13.96-5L18.32 0.12ZM20.24-4.08C19.68-4.72 19.36-5.16 18.84-5.72C18.56-6 18.40-6.24 18.12-6.56L18.12-12.04C18.84-12.88 19.56-13.76 20.28-14.60L25.12-14.60C25.92-13.56 26.44-12.96 27.20-12.08L27.28-12L27.28-6.52C26.88-6 26.56-5.68 26.20-5.32C25.84-4.92 25.56-4.52 25.16-4.08ZM46.68-0.12L46.68-23.16L54.12-23.16L54.12-27.32L35.04-27.32L35.04-23.16L42.52-23.16L42.52-0.12ZM75.20-27.32L62.88-27.32L57.72-22.36L57.72-4.88L62.92-0.12L75.20-0.12L75.20-4.28L64.52-4.28C63.56-5.16 62.88-5.88 61.92-6.76L61.92-20.60C62.84-21.48 63.72-22.28 64.60-23.16L75.20-23.16Z"></path></g> <!----></g> <g class="tp-slogan" transform="translate(0,34.31999969482422)"><!----> <!----> <!----> <g><path transform="translate(-0.515625,9.75)" d="M2.91-9.52L2.91-9.52L2.91-9.52Q3.75-9.52 4.08-9.33L4.08-9.33L4.08-9.33Q4.08-9.28 4.03-9.19L4.03-9.19L4.03-9.19Q3.80-8.91 3.80-8.58L3.80-8.58L3.80-6.84L3.80-6.84Q4.17-6.84 4.59-6.94L4.59-6.94L4.59-6.94Q4.69-6.94 4.73-6.94L4.73-6.94L4.73-6L4.73-6Q4.73-6 4.64-6L4.64-6L4.64-6Q4.22-6.09 3.80-6.09L3.80-6.09L3.80-3.89L5.11-4.45L5.34-3.61L3.80-2.95L3.80-0.56L3.80-0.56Q3.80 0.23 3.89 0.84L3.89 0.84L3.89 0.84Q3.89 0.98 3.89 0.98L3.89 0.98L2.81 0.98L2.81 0.98Q2.81 0.94 2.86 0.80L2.86 0.80L2.86 0.80Q2.95 0.09 2.95-0.52L2.95-0.52L2.95-2.53L1.08-1.64L0.52-2.53L2.95-3.56L2.95-6.14L1.92-6.14L1.92-6.14Q1.83-5.67 1.73-4.97L1.73-4.97L1.73-4.97Q1.64-4.36 1.59-4.22L1.59-4.22L1.59-4.22Q1.31-4.36 0.56-4.36L0.56-4.36L0.56-4.36Q1.17-6.19 1.22-8.16L1.22-8.16L1.22-8.16Q2.20-8.11 2.44-7.92L2.44-7.92L2.44-7.92Q2.44-7.83 2.34-7.73L2.34-7.73L2.34-7.73Q2.16-7.36 2.06-6.84L2.06-6.84L2.95-6.84L2.95-8.39L2.95-8.39Q2.95-9.19 2.91-9.52ZM6.38-9.52L6.38-9.52L6.38-9.52Q7.59-9.19 7.69-9.05L7.69-9.05L7.69-9.05Q7.69-9 7.59-8.95L7.59-8.95L7.59-8.95Q7.08-8.53 6.56-7.36L6.56-7.36L9.28-7.36L9.28-7.36Q10.64-7.36 11.02-7.50L11.02-7.50L11.02-7.50Q10.64-1.08 10.03 0.05L10.03 0.05L10.03 0.05Q9.66 0.61 8.11 0.66L8.11 0.66L8.11 0.66Q8.02 0 7.59-0.52L7.59-0.52L7.59-0.52Q8.86-0.33 9.14-0.61L9.14-0.61L9.14-0.61Q9.56-0.47 10.08-6.61L10.08-6.61L9.28-6.61L9.28-6.61Q8.72-0.94 5.63 0.56L5.63 0.56L5.63 0.56Q5.30 0.19 4.55 0L4.55 0L4.55 0Q7.83-1.13 8.39-6.61L8.39-6.61L7.69-6.61L7.69-6.61Q6.98-3.05 5.39-1.45L5.39-1.45L5.39-1.45Q5.16-1.73 4.36-1.92L4.36-1.92L4.36-1.92Q6.19-3.09 6.80-6.61L6.80-6.61L6.19-6.61L6.19-6.61Q6.14-6.56 5.72-5.81L5.72-5.81L5.72-5.81Q5.34-5.11 5.20-4.92L5.20-4.92L5.20-4.92Q5.02-5.16 4.31-5.34L4.31-5.34L4.31-5.34Q5.58-6.98 6.38-9.52ZM21.09-9.75L21.09-9.75L21.09-9.75Q22.36-9.38 22.41-9.23L22.41-9.23L22.41-9.23Q22.41-9.19 22.31-9.05L22.31-9.05L22.31-9.05Q22.03-8.81 21.89-8.53L21.89-8.53L21.89-8.53Q21.75-8.25 21.47-7.83L21.47-7.83L21.47-7.83Q21.19-7.36 21.09-7.22L21.09-7.22L21.28-7.22L21.28-7.22Q22.45-7.22 22.92-7.31L22.92-7.31L22.92-6.28L22.92-6.28Q21.98-6.38 21.33-6.38L21.33-6.38L20.44-6.38L20.44-4.22L21.19-4.22L21.19-4.22Q22.50-4.27 23.25-4.31L23.25-4.31L23.25-3.28L23.25-3.28Q22.88-3.33 21.23-3.33L21.23-3.33L20.53-3.33L20.53-3.33Q21.33-1.03 23.63-0.05L23.63-0.05L23.63-0.05Q23.02 0.28 22.64 1.03L22.64 1.03L22.64 1.03Q20.53-0.70 20.16-2.20L20.16-2.20L20.16-2.20Q19.73-0.33 17.77 1.13L17.77 1.13L17.77 1.13Q17.63 0.89 16.92 0.19L16.92 0.19L16.92 0.19Q16.88 0.14 16.88 0.14L16.88 0.14L16.88 0.14Q18.98-0.66 19.45-3.38L19.45-3.38L19.17-3.38L19.17-3.38Q17.91-3.38 17.16-3.28L17.16-3.28L17.16-4.31L17.16-4.31Q18-4.27 19.08-4.22L19.08-4.22L19.50-4.22L19.50-6.38L19.31-6.38L19.31-6.38Q18.14-6.33 17.39-6.28L17.39-6.28L17.39-7.31L17.39-7.31Q18.19-7.27 19.27-7.22L19.27-7.22L20.30-7.22L20.30-7.22Q20.86-8.34 21.09-9.75ZM18-9.33L19.08-9.66L19.08-9.66Q19.59-8.67 19.78-7.92L19.78-7.92L18.75-7.64L18.75-7.64Q18.38-8.77 18-9.33L18-9.33ZM15.89-6.42L15.89-7.92L14.30-7.92L14.30-6.42L15.89-6.42ZM15.89-5.58L14.30-5.58L14.30-3.98L15.89-3.98L15.89-5.58ZM15.89-3.19L14.30-3.19L14.30-1.45L15.89-1.73L15.89-3.19ZM16.92 1.22L16.92 1.22L15.80 1.22L15.80 1.22Q15.80 0.98 15.84 0.28L15.84 0.28L15.84 0.28Q15.84-0.33 15.84-0.52L15.84-0.52L15.84-0.84L15.84-0.84Q14.39-0.52 12.75 0L12.75 0L12.38-1.17L13.31-1.31L13.31-7.92L13.31-7.92Q12.89-7.92 12.52-7.88L12.52-7.88L12.52-9L12.52-9Q13.03-8.91 14.11-8.86L14.11-8.86L15.70-8.86L15.70-8.86Q17.06-8.91 17.63-9L17.63-9L17.63-7.92L17.63-7.92Q17.48-7.92 17.25-7.97L17.25-7.97L17.25-7.97Q16.97-7.97 16.83-7.97L16.83-7.97L16.83-1.92L17.77-2.06L17.67-1.13L17.67-1.13Q17.06-1.08 16.83-0.98L16.83-0.98L16.83-0.56L16.83-0.56Q16.83 0.47 16.92 1.22ZM25.41-9.23L25.41-9.23L25.41-9.23Q25.92-9.19 27.23-9.14L27.23-9.14L32.53-9.14L32.53-9.14Q34.13-9.19 34.64-9.23L34.64-9.23L34.64-9.23Q34.59-8.72 34.55-7.41L34.55-7.41L34.55-0.52L34.55-0.52Q34.92 1.08 32.44 1.08L32.44 1.08L32.44 1.08Q32.39 0.38 31.88-0.14L31.88-0.14L31.88-0.14Q33.89 0.23 33.56-0.80L33.56-0.80L33.56-8.25L26.44-8.25L26.44-1.17L26.44-1.17Q26.44 0.38 26.53 0.84L26.53 0.84L25.31 0.84L25.31 0.84Q25.45 0.05 25.45-1.13L25.45-1.13L25.45-7.22L25.45-7.22Q25.45-8.81 25.41-9.23ZM26.48-1.22L26.48-1.22L26.48-1.22Q27.47-2.44 28.17-4.13L28.17-4.13L28.17-4.13Q27.42-5.77 26.67-6.80L26.67-6.80L26.67-6.80Q27.05-6.89 27.56-7.08L27.56-7.08L27.56-7.08Q28.08-6.14 28.55-5.16L28.55-5.16L28.55-5.16Q28.97-6.42 29.06-7.59L29.06-7.59L29.06-7.59Q29.20-7.55 29.53-7.45L29.53-7.45L29.53-7.45Q30.33-7.22 30.23-7.17L30.23-7.17L30.23-7.17Q30.23-7.17 30.19-7.13L30.19-7.13L30.19-7.13Q30.05-6.98 29.91-6.70L29.91-6.70L29.91-6.70Q29.81-6.47 29.63-5.95L29.63-5.95L29.63-5.95Q29.30-5.02 29.02-4.27L29.02-4.27L29.02-4.27Q29.53-3.33 30.05-2.34L30.05-2.34L30.05-2.34Q29.95-2.30 29.81-2.20L29.81-2.20L29.81-2.20Q29.34-1.97 29.11-1.78L29.11-1.78L29.11-1.78Q28.88-2.67 28.59-3.28L28.59-3.28L28.59-3.28Q27.84-1.59 27.38-0.80L27.38-0.80L27.38-0.80Q27.14-1.03 26.48-1.22ZM31.27-3.98L31.27-3.98L31.27-3.98Q30.66-5.20 30.09-6L30.09-6L30.09-6Q29.95-6.23 29.86-6.38L29.86-6.38L29.86-6.38Q30.09-6.47 30.47-6.61L30.47-6.61L30.47-6.61Q30.66-6.70 30.75-6.75L30.75-6.75L30.75-6.75Q31.13-6 31.45-5.30L31.45-5.30L31.45-5.30Q31.59-4.92 31.64-5.02L31.64-5.02L31.64-5.02Q32.02-6.19 32.11-7.41L32.11-7.41L32.11-7.41Q33.28-7.22 33.33-7.08L33.33-7.08L33.33-7.08Q33.33-7.08 33.28-7.03L33.28-7.03L33.28-7.03Q33.14-6.89 33.05-6.75L33.05-6.75L33.05-6.75Q33-6.56 32.86-6.23L32.86-6.23L32.86-6.23Q32.72-5.67 32.11-4.03L32.11-4.03L32.11-4.03Q32.95-2.25 33.28-1.59L33.28-1.59L33.28-1.59Q33.19-1.55 32.95-1.45L32.95-1.45L32.95-1.45Q32.58-1.31 32.30-1.17L32.30-1.17L32.30-1.17Q32.02-2.06 31.69-3.09L31.69-3.09L31.69-3.09Q31.59-2.91 31.36-2.48L31.36-2.48L31.36-2.48Q30.75-1.45 30.33-0.75L30.33-0.75L30.33-0.75Q29.81-0.98 29.20-1.13L29.20-1.13L29.20-1.13Q30.66-2.30 31.27-3.98ZM41.39-9.66L41.39-9.66L41.39-9.66Q42.75-9.56 42.75-9.47L42.75-9.47L42.75-9.47Q42.75-9.42 42.70-9.28L42.70-9.28L42.70-9.28Q42.56-9 42.56-8.77L42.56-8.77L42.56-8.77Q42.52-8.06 42.52-7.27L42.52-7.27L44.06-7.27L44.06-7.27Q45.47-7.27 46.55-7.36L46.55-7.36L46.55-7.36Q46.45-6.28 46.41-5.20L46.41-5.20L46.41-3.94L46.41-3.94Q46.45-2.44 46.55-1.97L46.55-1.97L45.28-1.97L45.28-1.97Q45.33-2.39 45.33-2.72L45.33-2.72L42.52-2.72L42.52-0.56L42.52-0.56Q42.56 0.66 42.61 1.22L42.61 1.22L41.44 1.22L41.44 1.22Q41.48 0.80 41.48-0.56L41.48-0.56L41.48-2.72L38.63-2.72L38.63-2.72Q38.63-2.39 38.67-1.88L38.67-1.88L37.45-1.88L37.45-1.88Q37.55-2.44 37.59-3.94L37.59-3.94L37.59-5.20L37.59-5.20Q37.55-6.66 37.45-7.36L37.45-7.36L37.45-7.36Q38.39-7.31 39.80-7.27L39.80-7.27L41.48-7.27L41.48-7.27Q41.48-9.09 41.39-9.66ZM42.52-6.42L42.52-3.61L45.33-3.61L45.33-6.42L42.52-6.42ZM41.48-3.61L41.48-6.42L38.63-6.42L38.63-3.61L41.48-3.61ZM52.88-9.05L54.09-9.42L54.09-9.42Q54.33-9 54.75-7.83L54.75-7.83L53.53-7.45L53.53-7.45Q53.30-8.30 52.88-9.05L52.88-9.05ZM58.83-7.45L58.83-7.45L58.83-6.38L58.83-6.38Q58.78-6.38 58.64-6.38L58.64-6.38L58.64-6.38Q57.89-6.47 57.05-6.47L57.05-6.47L56.53-6.47L56.53-6.47Q56.20-3.52 54.66-1.92L54.66-1.92L54.66-1.92Q56.67-0.47 59.16-0.52L59.16-0.52L59.16-0.52Q59.16-0.47 58.92-0.19L58.92-0.19L58.92-0.19Q58.55 0.38 58.27 0.80L58.27 0.80L58.27 0.80Q55.45 0 53.91-1.22L53.91-1.22L53.91-1.22Q52.50-0.14 49.64 0.89L49.64 0.89L49.64 0.89Q49.31 0.42 48.84 0L48.84 0L48.84 0Q48.70-0.09 48.70-0.09L48.70-0.09L48.70-0.09Q51.23-0.52 53.20-1.92L53.20-1.92L53.20-1.92Q52.08-3.05 51.05-5.58L51.05-5.58L52.17-5.91L52.17-5.91Q52.50-4.36 53.91-2.58L53.91-2.58L53.91-2.58Q55.22-4.13 55.45-6.47L55.45-6.47L50.86-6.47L50.86-6.47Q49.97-6.47 49.17-6.38L49.17-6.38L49.17-6.38Q48.98-6.38 48.94-6.38L48.94-6.38L48.94-7.45L48.94-7.45Q48.98-7.45 49.13-7.45L49.13-7.45L49.13-7.45Q49.92-7.36 50.81-7.36L50.81-7.36L57.05-7.36L57.05-7.36Q58.08-7.36 58.73-7.45L58.73-7.45L58.73-7.45Q58.83-7.45 58.83-7.45ZM62.39-9.23L63.42-9.56L63.42-9.56Q63.84-8.77 64.03-7.78L64.03-7.78L63-7.45L63-7.45Q62.77-8.53 62.39-9.23L62.39-9.23ZM67.45-9.56L67.45-9.56L67.45-9.56Q68.95-9.47 68.91-9.33L68.91-9.33L68.91-9.33Q68.91-9.28 68.81-9.14L68.81-9.14L68.81-9.14Q68.72-8.95 68.67-8.81L68.67-8.81L68.67-8.81Q68.67-8.77 68.67-8.63L68.67-8.63L68.67-8.63Q68.58-7.31 68.58-6.23L68.58-6.23L68.95-6.23L68.95-6.23Q70.45-6.23 71.02-6.28L71.02-6.28L71.02-5.25L71.02-5.25Q70.59-5.30 69-5.30L69-5.30L68.58-5.30L68.58-0.52L69.33-0.52L69.33-0.52Q70.73-0.52 71.34-0.56L71.34-0.56L71.34 0.42L71.34 0.42Q70.64 0.38 69.28 0.33L69.28 0.33L66.42 0.33L66.42 0.33Q64.97 0.38 64.36 0.42L64.36 0.42L64.36-0.61L64.36-0.61Q65.53-0.52 66.47-0.52L66.47-0.52L67.55-0.52L67.55-5.30L67.08-5.30L67.08-5.30Q65.81-5.30 65.34-5.25L65.34-5.25L65.34-6.33L65.34-6.33Q66.33-6.23 67.08-6.23L67.08-6.23L67.55-6.23L67.55-6.23Q67.55-6.52 67.55-7.08L67.55-7.08L67.55-7.08Q67.59-9 67.45-9.56ZM60.61-6.19L60.61-7.27L60.61-7.27Q61.22-7.17 62.63-7.17L62.63-7.17L62.63-7.17Q64.17-7.13 64.88-7.22L64.88-7.22L64.88-7.22Q65.02-7.22 64.97-7.13L64.97-7.13L64.97-7.13Q64.08-5.44 63.47-4.73L63.47-4.73L63.47-0.98L63.47-0.98Q63.47 0.42 63.52 0.98L63.52 0.98L62.39 0.98L62.39 0.98Q62.48 0.23 62.48-0.98L62.48-0.98L62.48-3.89L62.48-3.89Q62.16-3.42 61.03-2.34L61.03-2.34L61.03-2.34Q60.84-2.16 60.80-2.11L60.80-2.11L60.80-2.11Q60.66-2.48 60.23-3.09L60.23-3.09L60.23-3.09Q62.06-4.31 63.42-6.33L63.42-6.33L63.42-6.33Q61.31-6.28 60.61-6.19L60.61-6.19ZM63.61-3.98L64.41-4.50L64.41-4.50Q64.69-4.17 65.34-2.86L65.34-2.86L64.45-2.34L64.45-2.34Q63.94-3.52 63.61-3.98L63.61-3.98ZM80.16-7.31L80.16-7.31L81.23-6.61L81.23-6.61Q81.19-6.56 80.72-5.95L80.72-5.95L80.72-5.95Q79.69-4.64 79.36-4.27L79.36-4.27L79.36-4.27Q79.78-3.89 81.05-2.81L81.05-2.81L81.05-2.81Q81.70-2.20 81.94-2.02L81.94-2.02L81.05-1.13L81.05-1.13Q80.02-2.53 78.80-3.56L78.80-3.56L78.80-3.56Q77.72-2.30 76.22-0.94L76.22-0.94L76.22-0.94Q75.89-1.31 75.19-1.64L75.19-1.64L75.19-1.64Q77.06-3 78.14-4.17L78.14-4.17L78.14-4.17Q76.69-5.44 75.33-6.28L75.33-6.28L76.13-7.03L76.13-7.03Q76.97-6.38 78.19-5.34L78.19-5.34L78.19-5.34Q78.56-5.02 78.70-4.88L78.70-4.88L78.70-4.88Q79.59-6.14 80.16-7.31ZM82.45-9.05L82.45-9.05L82.45-7.97L82.45-7.97Q81.70-8.02 80.44-8.02L80.44-8.02L74.44-8.02L74.44-0.33L80.77-0.33L80.77-0.33Q82.17-0.33 83.02-0.47L83.02-0.47L83.02 0.56L83.02 0.56Q82.73 0.47 80.91 0.47L80.91 0.47L75.33 0.47L75.33 0.47Q73.64 0.47 73.36 0.56L73.36 0.56L73.36 0.56Q73.41 0.23 73.41-0.66L73.41-0.66L73.41-0.66Q73.41-1.03 73.41-1.27L73.41-1.27L73.41-7.17L73.41-7.17Q73.45-8.25 73.31-9.05L73.31-9.05L73.31-9.05Q73.50-8.95 75.56-8.95L75.56-8.95L80.25-8.95L80.25-8.95Q81.89-8.95 82.45-9.05Z"></path></g></g></g></g></g></g></g></svg>